<svg width="100%" height="100%" viewBox="0 0 100 100" version="1.1" xmlns="http://www.w3.org/2000/svg" xmlns:xlink="http://www.w3.org/1999/xlink" xml:space="preserve" xmlns:serif="http://www.serif.com/" style="fill-rule:evenodd;clip-rule:evenodd;stroke-linejoin:round;stroke-miterlimit:2;"><path d="M100,30l0,40c0,16.557 -13.443,30 -30,30l-40,0c-16.557,0 -30,-13.443 -30,-30l0,-40c0,-16.557 13.443,-30 30,-30l40,0c16.557,0 30,13.443 30,30Z" style="fill:#00ebff;"/><path d="M22.182,81.956c-2.76,0 -5,-2.24 -5,-5c-0,-2.759 2.24,-5 5,-5c5.271,0 8.724,-2.618 11.432,-6.388c3.445,-4.796 5.808,-11.219 8.424,-17.613c6.31,-15.424 14.124,-30.216 34.031,-30.216c2.76,0 5,2.24 5,5c0,2.76 -2.24,5 -5,5c-10.391,0 -15.891,5.995 -19.937,13.414c-3.198,5.866 -5.545,12.594 -8.188,18.704c-5.362,12.395 -12.221,22.099 -25.762,22.099Z" style="fill:#fff;"/></svg>