<svg width="100%" height="100%" viewBox="0 0 1081 314" version="1.1" xmlns="http://www.w3.org/2000/svg" xmlns:xlink="http://www.w3.org/1999/xlink" xml:space="preserve" xmlns:serif="http://www.serif.com/" style="fill-rule:evenodd;clip-rule:evenodd;stroke-linejoin:round;stroke-miterlimit:2;">
    <rect id="Artboard1" x="0" y="0" width="1080.48" height="313.895" style="fill:none;"/>
    <path d="M292.792,174.195l0,-75.9l18.63,0l0,75.9l-18.63,0Zm13.915,0l0,-15.525l40.365,0l0,15.525l-40.365,0Zm0,-31.28l0,-13.915l35.075,0l0,13.915l-35.075,0Zm0,-29.095l0,-15.525l40.365,0l0,15.525l-40.365,0Z" style="fill:#fff;fill-rule:nonzero;"/>
    <path d="M369.957,175.805c-3.067,0 -5.98,-0.537 -8.74,-1.61c-2.76,-1.073 -5.022,-2.817 -6.785,-5.232c-1.763,-2.415 -2.645,-5.655 -2.645,-9.718c0,-3.757 0.728,-6.804 2.185,-9.142c1.457,-2.339 3.412,-4.217 5.865,-5.635c2.453,-1.419 5.137,-2.492 8.05,-3.22c2.913,-0.729 5.788,-1.361 8.625,-1.898c3.987,-0.767 6.977,-1.38 8.97,-1.84c1.993,-0.46 3.354,-0.997 4.083,-1.61c0.728,-0.613 1.092,-1.457 1.092,-2.53c0,-2.223 -0.824,-3.91 -2.472,-5.06c-1.649,-1.15 -3.815,-1.725 -6.498,-1.725c-1.687,0 -3.373,0.307 -5.06,0.92c-1.687,0.613 -3.067,1.706 -4.14,3.278c-1.073,1.571 -1.572,3.814 -1.495,6.727l-16.56,-1.15c-0.153,-4.83 0.575,-8.836 2.185,-12.017c1.61,-3.182 3.814,-5.674 6.613,-7.475c2.798,-1.802 5.865,-3.086 9.2,-3.853c3.335,-0.767 6.65,-1.15 9.947,-1.15c6.057,0 11.04,1.131 14.95,3.393c3.91,2.261 6.804,5.52 8.683,9.775c1.878,4.255 2.817,9.41 2.817,15.467l0,33.695l-16.1,0l0,-17.365l-0.69,0c-0.307,3.45 -1.437,6.613 -3.392,9.488c-1.955,2.875 -4.524,5.175 -7.705,6.9c-3.182,1.725 -6.843,2.587 -10.983,2.587Zm7.705,-13.57c1.303,0 2.703,-0.249 4.198,-0.747c1.495,-0.499 2.913,-1.323 4.255,-2.473c1.341,-1.15 2.434,-2.741 3.277,-4.772c0.843,-2.032 1.265,-4.543 1.265,-7.533l0,-2.76l3.105,-0.345c-0.613,0.997 -1.629,1.802 -3.047,2.415c-1.419,0.613 -3.01,1.093 -4.773,1.438c-1.763,0.345 -3.546,0.69 -5.347,1.035c-1.802,0.345 -3.47,0.805 -5.003,1.38c-1.533,0.575 -2.779,1.341 -3.737,2.3c-0.959,0.958 -1.438,2.28 -1.438,3.967c0,1.993 0.709,3.508 2.128,4.543c1.418,1.035 3.124,1.552 5.117,1.552Z" style="fill:#fff;fill-rule:nonzero;"/>
    <path d="M442.982,175.805c-4.063,0 -7.839,-0.402 -11.327,-1.207c-3.489,-0.805 -6.517,-2.09 -9.085,-3.853c-2.569,-1.763 -4.524,-4.121 -5.865,-7.072c-1.342,-2.952 -1.898,-6.536 -1.668,-10.753l16.215,-1.38c0.153,2.53 0.728,4.619 1.725,6.268c0.997,1.648 2.377,2.855 4.14,3.622c1.763,0.767 3.91,1.15 6.44,1.15c2.377,0 4.428,-0.402 6.153,-1.207c1.725,-0.805 2.587,-2.166 2.587,-4.083c0,-0.997 -0.307,-1.821 -0.92,-2.472c-0.613,-0.652 -1.744,-1.265 -3.392,-1.84c-1.649,-0.575 -4.045,-1.246 -7.188,-2.013c-3.91,-0.997 -7.437,-1.993 -10.58,-2.99c-3.143,-0.997 -5.827,-2.185 -8.05,-3.565c-2.223,-1.38 -3.91,-3.086 -5.06,-5.117c-1.15,-2.032 -1.725,-4.543 -1.725,-7.533c0,-4.217 1.131,-7.801 3.393,-10.752c2.261,-2.952 5.385,-5.214 9.372,-6.785c3.987,-1.572 8.587,-2.358 13.8,-2.358c4.677,0 9.047,0.728 13.11,2.185c4.063,1.457 7.264,3.833 9.603,7.13c2.338,3.297 3.2,7.667 2.587,13.11l-15.87,1.495c0.23,-2.223 -0.077,-4.121 -0.92,-5.692c-0.843,-1.572 -2.07,-2.76 -3.68,-3.565c-1.61,-0.805 -3.565,-1.208 -5.865,-1.208c-2.607,0 -4.619,0.479 -6.037,1.438c-1.419,0.958 -2.128,2.165 -2.128,3.622c0,1.15 0.441,2.128 1.323,2.933c0.881,0.805 2.261,1.495 4.14,2.07c1.878,0.575 4.312,1.207 7.302,1.897c2.607,0.537 5.328,1.227 8.165,2.07c2.837,0.843 5.482,1.974 7.935,3.393c2.453,1.418 4.447,3.277 5.98,5.577c1.533,2.3 2.3,5.213 2.3,8.74c0,3.757 -1.035,7.053 -3.105,9.89c-2.07,2.837 -5.098,5.022 -9.085,6.555c-3.987,1.533 -8.893,2.3 -14.72,2.3Z" style="fill:#fff;fill-rule:nonzero;"/>
    <path d="M475.872,174.195l0,-60.72l18.63,0l0,60.72l-18.63,0Zm9.2,-65.09c-3.527,0 -6.229,-0.747 -8.107,-2.242c-1.879,-1.495 -2.818,-3.661 -2.818,-6.498c0,-2.913 0.939,-5.117 2.818,-6.612c1.878,-1.495 4.58,-2.243 8.107,-2.243c3.603,0 6.344,0.767 8.223,2.3c1.878,1.533 2.817,3.718 2.817,6.555c0,2.76 -0.939,4.907 -2.817,6.44c-1.879,1.533 -4.62,2.3 -8.223,2.3Z" style="fill:#fff;fill-rule:nonzero;"/>
    <path d="M502.782,174.195l0,-60.72l15.755,0l0,24.725l0.92,0c0.46,-5.98 1.457,-10.906 2.99,-14.777c1.533,-3.872 3.718,-6.766 6.555,-8.683c2.837,-1.917 6.44,-2.875 10.81,-2.875c6.593,0 11.558,2.185 14.893,6.555c3.335,4.37 5.002,10.887 5.002,19.55l0,36.225l-18.63,0l0,-33.81c0,-4.14 -0.632,-7.245 -1.897,-9.315c-1.265,-2.07 -3.278,-3.105 -6.038,-3.105c-2.3,0 -4.332,0.805 -6.095,2.415c-1.763,1.61 -3.143,4.217 -4.14,7.82c-0.997,3.603 -1.495,8.433 -1.495,14.49l0,21.505l-18.63,0Z" style="fill:#fff;fill-rule:nonzero;"/>
    <path d="M591.447,192.365c-6.823,0 -12.228,-0.537 -16.215,-1.61c-3.987,-1.073 -6.823,-2.549 -8.51,-4.427c-1.687,-1.879 -2.53,-4.045 -2.53,-6.498c0,-3.373 1.342,-6.076 4.025,-8.107c2.683,-2.032 6.593,-3.431 11.73,-4.198l0,-0.575c-3.91,0 -6.977,-0.671 -9.2,-2.012c-2.223,-1.342 -3.335,-3.201 -3.335,-5.578c0,-2.223 1.016,-4.217 3.048,-5.98c2.031,-1.763 5.347,-2.645 9.947,-2.645l0,-0.805c-4.14,-0.997 -7.437,-2.913 -9.89,-5.75c-2.453,-2.837 -3.68,-6.517 -3.68,-11.04c0,-3.987 1.016,-7.437 3.048,-10.35c2.031,-2.913 5.002,-5.194 8.912,-6.842c3.91,-1.649 8.663,-2.473 14.26,-2.473l30.245,0l0,14.26l-20.815,-2.645l0,0.92c6.363,0.843 10.676,2.281 12.938,4.313c2.261,2.031 3.392,4.465 3.392,7.302c0,2.837 -0.862,5.367 -2.587,7.59c-1.725,2.223 -4.39,3.968 -7.993,5.233c-3.603,1.265 -8.165,1.897 -13.685,1.897c-1.687,0 -3.392,-0.077 -5.117,-0.23c-1.725,-0.153 -3.201,-0.383 -4.428,-0.69c-1.303,0.537 -2.319,1.093 -3.047,1.668c-0.729,0.575 -1.093,1.169 -1.093,1.782c0,0.383 0.153,0.671 0.46,0.863c0.307,0.191 0.748,0.325 1.323,0.402c0.575,0.077 1.245,0.115 2.012,0.115l18.4,0c1.61,0 3.623,0.096 6.038,0.288c2.415,0.191 4.83,0.766 7.245,1.725c2.415,0.958 4.427,2.549 6.037,4.772c1.61,2.223 2.415,5.367 2.415,9.43c0,4.6 -1.207,8.357 -3.622,11.27c-2.415,2.913 -6.076,5.079 -10.983,6.498c-4.907,1.418 -11.155,2.127 -18.745,2.127Zm0,-16.33c5.137,0 8.932,-0.172 11.385,-0.517c2.453,-0.345 4.063,-0.825 4.83,-1.438c0.767,-0.613 1.15,-1.303 1.15,-2.07c0,-1.073 -0.307,-1.917 -0.92,-2.53c-0.613,-0.613 -1.38,-1.054 -2.3,-1.322c-0.92,-0.269 -1.821,-0.422 -2.702,-0.46c-0.882,-0.039 -1.591,-0.058 -2.128,-0.058l-15.525,0c-2.453,0.843 -4.121,1.629 -5.002,2.358c-0.882,0.728 -1.323,1.552 -1.323,2.472c0,1.073 0.518,1.859 1.553,2.358c1.035,0.498 2.491,0.824 4.37,0.977c1.878,0.153 4.082,0.23 6.612,0.23Zm1.955,-33.81c2.453,0 4.351,-0.767 5.693,-2.3c1.341,-1.533 2.012,-3.642 2.012,-6.325c0,-2.683 -0.69,-4.849 -2.07,-6.497c-1.38,-1.649 -3.297,-2.473 -5.75,-2.473c-2.377,0 -4.274,0.824 -5.692,2.473c-1.419,1.648 -2.128,3.814 -2.128,6.497c0,1.763 0.307,3.297 0.92,4.6c0.613,1.303 1.514,2.3 2.703,2.99c1.188,0.69 2.625,1.035 4.312,1.035Z" style="fill:#fff;fill-rule:nonzero;"/>
    <path d="M670.107,174.195l0,-75.9l18.63,0l0,75.9l-18.63,0Zm-18.745,-60.03l0,-15.87l56.12,0l0,15.87l-56.12,0Z" style="fill:#fff;fill-rule:nonzero;"/>
    <path d="M713.232,174.195l0,-60.72l18.63,0l0,60.72l-18.63,0Zm9.2,-65.09c-3.527,0 -6.229,-0.747 -8.107,-2.242c-1.879,-1.495 -2.818,-3.661 -2.818,-6.498c0,-2.913 0.939,-5.117 2.818,-6.612c1.878,-1.495 4.58,-2.243 8.107,-2.243c3.603,0 6.344,0.767 8.223,2.3c1.878,1.533 2.817,3.718 2.817,6.555c0,2.76 -0.939,4.907 -2.817,6.44c-1.879,1.533 -4.62,2.3 -8.223,2.3Z" style="fill:#fff;fill-rule:nonzero;"/>
    <path d="M740.142,174.195l0,-60.72l15.755,0l0,24.725l0.92,0c0.537,-6.44 1.591,-11.577 3.163,-15.41c1.571,-3.833 3.68,-6.612 6.325,-8.337c2.645,-1.725 5.807,-2.588 9.487,-2.588c3.833,0 6.938,0.939 9.315,2.818c2.377,1.878 4.14,4.753 5.29,8.625c1.15,3.871 1.687,8.835 1.61,14.892l0.92,0c0.537,-6.363 1.648,-11.462 3.335,-15.295c1.687,-3.833 3.91,-6.632 6.67,-8.395c2.76,-1.763 6.018,-2.645 9.775,-2.645c3.143,0 5.865,0.575 8.165,1.725c2.3,1.15 4.236,2.875 5.808,5.175c1.571,2.3 2.74,5.194 3.507,8.683c0.767,3.488 1.15,7.57 1.15,12.247l0,34.5l-18.63,0l0,-32.89c0,-2.913 -0.249,-5.347 -0.747,-7.302c-0.499,-1.955 -1.246,-3.412 -2.243,-4.37c-0.997,-0.959 -2.262,-1.438 -3.795,-1.438c-1.993,0 -3.833,0.901 -5.52,2.703c-1.687,1.801 -3.047,4.504 -4.082,8.107c-1.035,3.603 -1.553,8.165 -1.553,13.685l0,21.505l-18.17,0l0,-33.35c0,-2.913 -0.249,-5.29 -0.747,-7.13c-0.499,-1.84 -1.265,-3.22 -2.3,-4.14c-1.035,-0.92 -2.32,-1.38 -3.853,-1.38c-1.917,0 -3.699,0.786 -5.347,2.358c-1.649,1.571 -2.99,4.159 -4.025,7.762c-1.035,3.603 -1.553,8.395 -1.553,14.375l0,21.505l-18.63,0Z" style="fill:#fff;fill-rule:nonzero;"/>
    <path d="M867.907,175.805c-5.75,0 -10.561,-0.824 -14.432,-2.472c-3.872,-1.649 -6.996,-3.91 -9.373,-6.785c-2.377,-2.875 -4.082,-6.153 -5.117,-9.833c-1.035,-3.68 -1.553,-7.552 -1.553,-11.615c0,-4.37 0.556,-8.548 1.668,-12.535c1.111,-3.987 2.836,-7.532 5.175,-10.637c2.338,-3.105 5.366,-5.559 9.085,-7.36c3.718,-1.802 8.184,-2.703 13.397,-2.703c5.213,0 9.679,0.901 13.398,2.703c3.718,1.801 6.689,4.312 8.912,7.532c2.223,3.22 3.661,6.938 4.313,11.155c0.651,4.217 0.555,8.778 -0.288,13.685l-44.045,0.69l0,-10.12l29.785,-0.575l-2.415,5.865c0.46,-3.527 0.403,-6.497 -0.172,-8.912c-0.575,-2.415 -1.63,-4.255 -3.163,-5.52c-1.533,-1.265 -3.642,-1.898 -6.325,-1.898c-2.837,0 -5.098,0.728 -6.785,2.185c-1.687,1.457 -2.875,3.508 -3.565,6.153c-0.69,2.645 -1.035,5.769 -1.035,9.372c0,6.21 1.035,10.733 3.105,13.57c2.07,2.837 5.252,4.255 9.545,4.255c1.84,0 3.373,-0.23 4.6,-0.69c1.227,-0.46 2.223,-1.131 2.99,-2.012c0.767,-0.882 1.303,-1.955 1.61,-3.22c0.307,-1.265 0.422,-2.703 0.345,-4.313l17.02,0.92c0.23,2.53 -0.019,5.137 -0.747,7.82c-0.729,2.683 -2.09,5.175 -4.083,7.475c-1.993,2.3 -4.772,4.178 -8.337,5.635c-3.565,1.457 -8.07,2.185 -13.513,2.185Z" style="fill:#fff;fill-rule:nonzero;"/>
    <path d="M266.515,111.46l0,46.361c0,19.19 -15.58,34.77 -34.77,34.77l-46.361,0c-19.19,0 -34.77,-15.58 -34.77,-34.77l-0,-46.361c-0,-19.189 15.58,-34.77 34.77,-34.77l46.361,-0c19.19,-0 34.77,15.581 34.77,34.77Z" style="fill:#00ebff;"/>
    <path d="M176.323,171.678c-3.199,0 -5.795,-2.596 -5.795,-5.795c-0,-3.198 2.596,-5.795 5.795,-5.795c6.109,-0 10.111,-3.034 13.25,-7.404c3.993,-5.559 6.731,-13.003 9.763,-20.414c7.314,-17.876 16.37,-35.02 39.443,-35.02c3.199,-0 5.795,2.596 5.795,5.795c-0,3.199 -2.596,5.795 -5.795,5.795c-12.044,-0 -18.418,6.948 -23.107,15.547c-3.707,6.799 -6.427,14.596 -9.49,21.678c-6.215,14.366 -14.165,25.613 -29.859,25.613Z" style="fill:#fff;"/>
    <path d="M91.753,65.914c-23.079,-0 -41.816,26.12 -41.816,58.292c-0,-32.172 -18.737,-58.292 -41.816,-58.292c23.079,-0 41.816,-26.12 41.816,-58.293c-0,32.173 18.737,58.293 41.816,58.293Z" style="fill:#fff;fill-opacity:0.4;"/>
    <path d="M1067.68,195.738c-29.82,0 -54.03,33.75 -54.03,75.32c0,-41.57 -24.21,-75.32 -54.03,-75.32c29.82,0 54.03,-33.749 54.03,-75.319c0,41.57 24.21,75.319 54.03,75.319Z" style="fill:#fff;fill-opacity:0.3;"/>
    <path d="M134.571,267.18c-15.734,0 -28.508,17.807 -28.508,39.741c-0,-21.934 -12.774,-39.741 -28.508,-39.741c15.734,0 28.508,-17.807 28.508,-39.74c-0,21.933 12.774,39.74 28.508,39.74Z" style="fill:#fff;fill-opacity:0.5;"/>
</svg>
