<?xml version="1.0" encoding="UTF-8" standalone="no"?>
<!DOCTYPE svg PUBLIC "-//W3C//DTD SVG 1.1//EN" "http://www.w3.org/Graphics/SVG/1.1/DTD/svg11.dtd">
<svg width="100%" height="100%" viewBox="0 0 1280 484" version="1.1" xmlns="http://www.w3.org/2000/svg" xmlns:xlink="http://www.w3.org/1999/xlink" xml:space="preserve" xmlns:serif="http://www.serif.com/" style="fill-rule:evenodd;clip-rule:evenodd;stroke-linecap:round;stroke-linejoin:round;stroke-miterlimit:1.5;">
    <rect id="Artboard1" x="0" y="0" width="1280" height="483.479" style="fill:none;"/>
    <clipPath id="_clip1">
        <rect x="0" y="0" width="1280" height="483.479"/>
    </clipPath>
    <g clip-path="url(#_clip1)">
        <path d="M4.621,400.468c46.574,-55.579 184.41,-103.593 321.337,58.394c0,-0 276.693,-345.839 631.341,-128.414c53.902,-173.569 130.545,-296.647 307.976,-321.735" style="fill:none;stroke:#fff;stroke-width:14px;"/>
        <path d="M4.478,422.727c54.22,-62.339 196.769,-76.424 323.892,40.959c1.136,12.595 246.982,-309.167 625.15,-132.477c53.902,-173.569 148.184,-248.646 325.614,-273.734" style="fill:none;stroke:#0095ff;stroke-width:7.5px;"/>
        <path d="M359.621,328.115l-30.547,120.507l-147.49,-180.789" style="fill:none;stroke:#30d49b;stroke-width:10px;"/>
        <g>
            <path d="M1004.78,76.678l-53.794,249.544l-46.229,-81.799" style="fill:none;stroke:#30d49b;stroke-width:10px;"/>
            <circle cx="950.816" cy="322.878" r="15.284" style="fill:#00ffa7;stroke:#00ffa7;stroke-width:12px;"/>
            <path d="M1006.46,44.968c8.304,-1.48 16.249,4.061 17.729,12.366c1.48,8.304 -4.061,16.249 -12.366,17.729c-8.304,1.48 -16.249,-4.061 -17.729,-12.366c-1.48,-8.305 4.061,-16.249 12.366,-17.729Z" style="fill:none;stroke:#00ffa7;stroke-width:12px;"/>
            <path d="M892.535,214.786c8.304,-1.48 16.249,4.061 17.729,12.366c1.48,8.304 -4.061,16.249 -12.366,17.729c-8.304,1.48 -16.249,-4.061 -17.729,-12.366c-1.48,-8.305 4.061,-16.249 12.366,-17.729Z" style="fill:none;stroke:#00ffa7;stroke-width:12px;"/>
        </g>
        <circle cx="363.329" cy="311.673" r="15.284" style="fill:none;stroke:#00ffa7;stroke-width:12px;"/>
        <circle cx="172.199" cy="253.392" r="15.284" style="fill:none;stroke:#00ffa7;stroke-width:12px;"/>
        <circle cx="330.021" cy="452.751" r="15.284" style="fill:#00ffa7;stroke:#00ffa7;stroke-width:12px;"/>
    </g>
</svg>
